<svg id="svg2985" xmlns="http://www.w3.org/2000/svg" viewBox="0 0 346.96484 355.28131"><defs><style>.cls-1,.cls-3{fill:#2250a9;}.cls-1{stroke:#cac9ca;stroke-miterlimit:10;stroke-width:6px;}.cls-2{fill:#cac9ca;}.cls-4,.cls-5{fill:#fff;}.cls-5{font-size:22px;font-family:Arial-BoldMT, Arial;font-weight:700;}</style></defs><title>Logo_VELB_hrv</title><path class="cls-1" d="M374.79053,274.48271A170.48242,170.48242,0,1,0,545.273,444.96513,170.48242,170.48242,0,0,0,374.79053,274.48271Zm.00012,288.15942a117.67891,117.67891,0,0,1-117.68225-117.677h.00012a117.68207,117.68207,0,1,1,117.68213,117.677Z" transform="translate(-201.30811 -271.48271)"/><path id="path3079" class="cls-2" d="M362.15508,428.12052h25.27023a4.21081,4.21081,0,0,1,4.21124,4.21143V457.6005a4.21055,4.21055,0,0,1-4.21124,4.21021H362.15508a4.21053,4.21053,0,0,1-4.21112-4.21021V432.33195A4.21079,4.21079,0,0,1,362.15508,428.12052Z" transform="translate(-201.30811 -271.48271)"/><path id="path3079-2" data-name="path3079" class="cls-2" d="M362.15508,377.58463h25.27023a4.21081,4.21081,0,0,1,4.21124,4.21143v25.26855a4.21055,4.21055,0,0,1-4.21124,4.21021H362.15508a4.21053,4.21053,0,0,1-4.21112-4.21021V381.79606A4.21079,4.21079,0,0,1,362.15508,377.58463Z" transform="translate(-201.30811 -271.48271)"/><path id="path3079-3" data-name="path3079" class="cls-2" d="M311.61631,478.65519h25.27023a4.21081,4.21081,0,0,1,4.21124,4.21143v25.26855a4.21055,4.21055,0,0,1-4.21124,4.2102H311.61631a4.21053,4.21053,0,0,1-4.21112-4.2102V482.86662A4.21079,4.21079,0,0,1,311.61631,478.65519Z" transform="translate(-201.30811 -271.48271)"/><path id="path3081" class="cls-2" d="M412.69412,478.65519h25.27a4.21069,4.21069,0,0,1,4.21112,4.21143v25.26855a4.21043,4.21043,0,0,1-4.21112,4.2102h-25.27a4.21072,4.21072,0,0,1-4.21135-4.2102V482.86662A4.211,4.211,0,0,1,412.69412,478.65519Z" transform="translate(-201.30811 -271.48271)"/><path class="cls-3" d="M427.00588,411.27563v16.84h10.96a4.21017,4.21017,0,0,1,4.21,4.21v25.27a4.21655,4.21655,0,0,1-4.21,4.21h-25.27a4.21216,4.21216,0,0,1-1.64-.33l-19.75,19.75a4.24846,4.24846,0,0,1,.33,1.64v25.27a4.21017,4.21017,0,0,1-4.21,4.21h-25.27a4.21016,4.21016,0,0,1-4.21-4.21v-25.27a4.24846,4.24846,0,0,1,.33-1.64l-19.75-19.75a4.21239,4.21239,0,0,1-1.64.33h-25.27a4.21655,4.21655,0,0,1-4.21-4.21v-25.27a4.21017,4.21017,0,0,1,4.21-4.21h10.93v-16.84h-10.93a4.21017,4.21017,0,0,1-4.21-4.21v-25.27a4.21016,4.21016,0,0,1,4.21-4.21h25.27a4.20376,4.20376,0,0,1,4.21,4.21v25.27a4.20377,4.20377,0,0,1-4.21,4.21h-10.96v16.84h10.96a4.20377,4.20377,0,0,1,4.21,4.21v25.27a4.17091,4.17091,0,0,1-.47,1.93l19.6,19.6a4.2014,4.2014,0,0,1,1.93-.47h25.27a4.1404,4.1404,0,0,1,1.93.47l19.6-19.6a4.17021,4.17021,0,0,1-.47-1.93v-25.27a4.20378,4.20378,0,0,1,4.21-4.21h10.93v-16.84h-10.93a4.21017,4.21017,0,0,1-4.21-4.21v-25.27a4.21016,4.21016,0,0,1,4.21-4.21h25.27a4.20377,4.20377,0,0,1,4.21,4.21v25.27a4.20378,4.20378,0,0,1-4.21,4.21Z" transform="translate(-201.30811 -271.48271)"/><path id="path3145" class="cls-4" d="M223.50572,456.55664a7.78757,7.78757,0,1,1,7.78763,7.78564A7.78745,7.78745,0,0,1,223.50572,456.55664Z" transform="translate(-201.30811 -271.48271)"/><path id="path3147" class="cls-4" d="M511.53238,456.55664a7.78755,7.78755,0,1,1,7.78763,7.78564A7.78742,7.78742,0,0,1,511.53238,456.55664Z" transform="translate(-201.30811 -271.48271)"/><path class="cls-4" d="M261.05539,372.106l-20.0918-3.91406,2.67383-4.02,14.73047,3.10693-8.65137-12.249,2.61426-3.93164,11.35645,17.0498Z" transform="translate(-201.30811 -271.48271)"/><path class="cls-4" d="M273.77609,354.94l-13.33594-13.38867,11.57227-11.54492,2.25586,2.26465-8.4209,8.40137,2.95605,2.96777,7.83691-7.81689,2.24707,2.25537-7.83691,7.81787,3.62988,3.64355,8.7207-8.69873,2.24609,2.25586Z" transform="translate(-201.30811 -271.48271)"/><path class="cls-4" d="M293.58469,336.78619,283.12863,321.231l3.69629-2.48145,8.67969,12.91211,9.19043-6.168,1.77637,2.64209Z" transform="translate(-201.30811 -271.48271)"/><path class="cls-4" d="M314.7507,323.72125l-7.36719-17.40332,15.06055-6.35693,1.24609,2.94385-10.959,4.626,1.63281,3.8584,10.19727-4.30469,1.24121,2.93262-10.19727,4.3042,2.00488,4.73633,11.34766-4.78955,1.24121,2.93164Z" transform="translate(-201.30811 -271.48271)"/><path class="cls-4" d="M336.4802,295.5943l4.36816-.85986,1.96484,10.04541a18.2096,18.2096,0,0,0,.76953,3.06689,3.03523,3.03523,0,0,0,1.69238,1.56494,5.32265,5.32265,0,0,0,3.01953.12109,5.04,5.04,0,0,0,2.67578-1.20361,2.58635,2.58635,0,0,0,.82324-1.82422,18.10275,18.10275,0,0,0-.4248-3.1875l-2.00781-10.25977,4.36816-.86035,1.90527,9.7417a21.87048,21.87048,0,0,1,.57031,4.7876,5.06511,5.06511,0,0,1-.85059,2.585,6.82973,6.82973,0,0,1-2.248,2.0127,12.99723,12.99723,0,0,1-4.05273,1.38281,14.04367,14.04367,0,0,1-4.81836.312,6.85783,6.85783,0,0,1-2.84277-1.09521,4.94871,4.94871,0,0,1-1.627-1.81445,19.71628,19.71628,0,0,1-1.34961-4.62158Z" transform="translate(-201.30811 -271.48271)"/><path class="cls-4" d="M381.29055,303.09625l4.28711,1.27344a8.23857,8.23857,0,0,1-3.40723,4.51758,10.55039,10.55039,0,0,1-5.8916,1.36377,10.32332,10.32332,0,0,1-7.15723-2.74072,9.03454,9.03454,0,0,1-2.66113-7.09619,9.44882,9.44882,0,0,1,3.0127-7.25977,10.61754,10.61754,0,0,1,7.5332-2.43408,10.10814,10.10814,0,0,1,6.52246,2.20313,7.26818,7.26818,0,0,1,2.17383,3.5332l-4.42676.79834a3.95375,3.95375,0,0,0-1.57715-2.35791,5.19649,5.19649,0,0,0-2.99414-.92139,5.41389,5.41389,0,0,0-4.01172,1.41455q-1.56152,1.47144-1.64062,4.84814-.085,3.58228,1.38379,5.13867a5.25919,5.25919,0,0,0,3.874,1.6123,4.91593,4.91593,0,0,0,3.0752-.895A5.42,5.42,0,0,0,381.29055,303.09625Zm-9.69336-17.14453,3.41309.08008,1.57813,1.958,1.78906-1.87891,3.39844.0791-3.20215,3.72949-3.9082-.0918Z" transform="translate(-201.30811 -271.48271)"/><path class="cls-4" d="M394.61171,311.54254l3.25879-18.61426,4.38477.77148L398.99647,312.314Z" transform="translate(-201.30811 -271.48271)"/><path class="cls-4" d="M408.81418,314.07477l5.65332-17.87012,4.24316,1.3457-4.69336,14.835,10.5498,3.34717-.959,3.03467Z" transform="translate(-201.30811 -271.48271)"/><path class="cls-4" d="M431.22727,322.63955l8.0332-17.10547,4.0293,1.89258-8.0332,17.10547Z" transform="translate(-201.30811 -271.48271)"/><path class="cls-4" d="M446.54335,323.7241l3.82227,2.06982a4.3387,4.3387,0,0,0-.17773,3.165,5.33819,5.33819,0,0,0,2.21875,2.5,5.56419,5.56419,0,0,0,3.13867,1.12256,2.2328,2.2328,0,0,0,1.91309-.92773,1.57733,1.57733,0,0,0,.24121-1.20557,3.81,3.81,0,0,0-.8916-1.562q-.52734-.62183-2.5293-2.6416a13.11418,13.11418,0,0,1-3.17773-4.31445,4.64781,4.64781,0,0,1,.38574-4.29248,4.37539,4.37539,0,0,1,2.2793-1.73535,5.89454,5.89454,0,0,1,3.35156-.09375,12.69162,12.69162,0,0,1,3.99121,1.82617q3.47168,2.27417,4.373,4.72656a5.2135,5.2135,0,0,1-.43945,4.68945l-3.81641-2.29785a3.11915,3.11915,0,0,0,.123-2.42334,5.04588,5.04588,0,0,0-2.00977-2.07764,5.74088,5.74088,0,0,0-2.916-1.09277,1.33213,1.33213,0,0,0-1.23437.59375,1.38927,1.38927,0,0,0-.0752,1.32227,12.95092,12.95092,0,0,0,2.73047,3.29688,24.232,24.232,0,0,1,3.27441,3.76855,5.92888,5.92888,0,0,1,.98438,2.94043,5.22245,5.22245,0,0,1-3.46191,4.9668,6.18294,6.18294,0,0,1-3.64648.13184,14.36509,14.36509,0,0,1-4.39258-2.0498,10.65445,10.65445,0,0,1-4.46484-4.90234A6.86313,6.86313,0,0,1,446.54335,323.7241Zm12.98145-12.67139,2.85742,1.86914.30566,2.49609,2.5127-.65088,2.84375,1.86133-4.68945,1.4751-3.27148-2.14062Z" transform="translate(-201.30811 -271.48271)"/><path class="cls-4" d="M467.37766,346.59283l10.94629-11.25635-4.69238-4.55664,2.22852-2.29248L488.42941,340.692l-2.22754,2.293-4.68359-4.54736L470.572,349.69391Z" transform="translate(-201.30811 -271.48271)"/><path class="cls-4" d="M481.11008,361.25055l15.51563-10.79,9.32617,13.42676-2.625,1.8252-6.78711-9.76953-3.43945,2.3916,6.31543,9.09033-2.61426,1.81787-6.31445-9.09082-4.22266,2.93652,7.02637,10.11621-2.61426,1.81738Z" transform="translate(-201.30811 -271.48271)"/><text class="cls-5" transform="matrix(0.82725, 0.9371, -0.9, 0.79373, 51.50933, 267.18716)">U</text><text class="cls-5" transform="matrix(0.94409, 0.81928, -0.78643, 0.90639, 69.75981, 286.56965)"> </text><text class="cls-5" transform="matrix(1.04515, 0.6857, -0.65833, 1.0033, 80.76737, 296.05407)">B</text><text class="cls-5" transform="matrix(1.14726, 0.49631, -0.47763, 1.10085, 105.22587, 310.96215)">J</text><text class="cls-5" transform="matrix(1.21297, 0.30204, -0.29162, 1.16403, 127.20224, 319.85015)">E</text><text class="cls-5" transform="matrix(1.24635, 0.09559, -0.09044, 1.19659, 153.51529, 325.5915)">L</text><text class="cls-5" transform="matrix(1.24258, -0.1361, 0.13207, 1.19271, 179.78337, 326.93676)">O</text><text class="cls-5" transform="matrix(1.19272, -0.37406, 0.35916, 1.14499, 210.78394, 322.41398)">V</text><text class="cls-5" transform="matrix(1.11444, -0.56616, 0.54353, 1.06985, 234.32239, 314.53054)">A</text><text class="cls-5" transform="matrix(0.98619, -0.76807, 0.73837, 0.94595, 260.33132, 300.25869)">R</text><text class="cls-5" transform="matrix(0.82151, -0.94214, 0.9059, 0.787, 283.15524, 281.28579)">U</text></svg>